<svg xmlns="http://www.w3.org/2000/svg">
  <g id="Layer_2" data-name="Layer 2">
    <rect x="2" width="11" height="1" />
    <rect x="1" y="1" width="1" height="1" />
    <rect y="2" width="1" height="11" />
    <rect x="13" y="1" width="1" height="1" />
    <rect x="2" y="14" width="11" height="1" />
    <rect x="1" y="13" width="1" height="1" />
    <rect x="14" y="2" width="1" height="11" />
    <rect x="13" y="13" width="1" height="1" />
    <rect width="" height="100" />

    <rect x="2" y="2" width="11" height="11" fill="rgb(0, 204, 255)"/>
    <rect x="2" y="1" width="11" height="1" fill="rgb(45, 213, 255)"/>
    <rect x="13" y="2" width="1" height="11" fill="rgb(45, 213, 255)"/>
    <rect x="2" y="13" width="11" height="1" fill="rgb(0, 142, 178)"/>
    <rect x="1" y="2" width="1" height="11" fill="rgb(0, 142, 178)"/>

    <rect x="3" y="9" width="1" height="1" fill="#FFF"/>
    <rect x="4" y="8" width="1" height="1" fill="#FFF"/>
    <rect x="5" y="7" width="1" height="1" fill="#FFF"/>
    <rect x="6" y="6" width="1" height="1" fill="#FFF"/>
    <rect x="7" y="7" width="1" height="1" fill="#FFF"/>
    <rect x="8" y="8" width="1" height="1" fill="#FFF"/>
    <rect x="9" y="7" width="1" height="1" fill="#FFF"/>
    <rect x="10" y="6" width="1" height="1" fill="#FFF"/>
    <rect x="11" y="5" width="1" height="1" fill="#FFF"/>
  </g>
</svg>